<svg width="39" height="32" viewBox="0 0 39 32" fill="none" xmlns="http://www.w3.org/2000/svg">
<path d="M3 26.7001C6.70047 26.9084 9.93637 26.0433 13.0922 23.7526C9.90433 23.2079 7.69367 21.7502 6.49222 18.7385C7.42134 18.6104 8.23833 18.8507 9.19949 18.4662C6.0597 17.0885 4.02524 15.022 3.94514 11.4497C4.93834 11.5298 5.69126 12.1866 6.87669 12.0905C3.99321 9.27109 3.11214 6.19538 4.92232 2.46287C7.93395 5.92305 11.4582 8.27789 15.7674 9.38323C16.0077 9.4473 16.232 9.51138 16.4723 9.55944C17.5776 9.81575 18.8912 10.3604 19.564 10.2803C20.7174 10.1361 19.564 8.80653 19.8524 7.07644C20.7655 1.69395 26.6926 -0.757012 31.0819 2.3988C32.3634 3.32792 33.3727 3.3119 34.6382 2.75122C35.295 2.46287 35.9678 2.17453 36.7527 1.83812C36.5765 3.37598 35.3911 4.225 34.446 5.36237C35.5193 5.60266 36.3843 5.2983 37.3775 4.97791C37.0411 6.08324 36.2081 6.708 35.4552 7.31673C34.6702 7.94149 34.3659 8.59828 34.3338 9.62352C33.8532 25.1463 16.216 37.1447 4.1534 27.5972C2.98399 26.6681 4.12135 27.5972 3 26.7001Z" stroke="white" stroke-width="1.5"/>
</svg>
