<svg width="32" height="33" viewBox="0 0 32 33" fill="none" xmlns="http://www.w3.org/2000/svg">
<path d="M29.9795 9.63115C29.2172 7.94672 28.123 6.43443 26.7336 5.13115C25.3443 3.84016 23.7336 2.81967 21.9386 2.10656C20.082 1.36885 18.1148 1 16.0861 1C14.0574 1 12.0902 1.36885 10.2336 2.10656C8.43854 2.81967 6.82788 3.82787 5.43854 5.13115C4.04919 6.43443 2.95494 7.94672 2.19265 9.63115C1.40576 11.3771 1 13.2459 1 15.1639C1 18.5205 2.25409 21.7418 4.55327 24.2992L3.32376 31L9.86477 28.0861C11.8197 28.9221 13.8976 29.3402 16.0738 29.3402C18.1025 29.3402 20.0697 28.9713 21.9263 28.2336C23.7213 27.5205 25.332 26.5123 26.7213 25.209C28.1107 23.9057 29.2049 22.3934 29.9672 20.709C30.7541 18.9631 31.1599 17.0943 31.1599 15.1762C31.1722 13.2459 30.7664 11.3893 29.9795 9.63115Z" stroke="white" stroke-width="1.5"/>
<path d="M22.209 17.9918C21.5697 17.6721 21.1025 17.4754 20.7706 17.3524C20.5615 17.2786 20.0697 17.0573 19.8976 17.1926C19.3566 17.6352 18.7787 18.8893 18.164 19.1229C16.6394 18.8278 15.2255 17.7827 14.1189 16.7131C13.6271 16.2459 12.7173 14.918 12.5205 14.5614C12.4837 14.1926 13.1476 13.7008 13.2951 13.418C14.0574 12.5573 13.4796 12.0163 13.3812 11.6598C13.2091 11.2909 12.914 10.627 12.6558 10.086C12.4345 9.72946 12.3853 9.20077 11.9918 9.00405C10.3197 8.14339 9.36072 9.86471 8.96728 10.7622C6.59433 16.4795 20.8566 27.3606 23.7582 19.8606C23.9058 19.209 23.8443 18.9631 23.623 18.668C23.1804 18.3606 22.664 18.2254 22.209 17.9918Z" stroke="white" stroke-width="1.5"/>
</svg>
