<svg width="32" height="32" viewBox="0 0 32 32" fill="none" xmlns="http://www.w3.org/2000/svg">
<path d="M7.77423 10.8652H1.50558V30.8555H7.77423V10.8652Z" stroke="white" stroke-width="1.5"/>
<path d="M24.7313 10.4318C24.5002 10.403 24.2547 10.3885 24.0091 10.3741C20.4993 10.2296 18.5205 12.3095 17.8272 13.2051C17.6394 13.4506 17.5527 13.5951 17.5527 13.5951V10.9229H11.5585V30.9133H17.8272C17.8272 28.8767 17.8272 26.8545 17.8272 24.818C17.8272 23.7202 17.8272 22.6225 17.8272 21.5248C17.8272 20.167 17.7261 18.7226 18.4049 17.4805C18.9827 16.4405 20.0226 15.9205 21.1926 15.9205C24.6591 15.9205 24.7313 19.0548 24.7313 19.3437C24.7313 19.3582 24.7313 19.3726 24.7313 19.3726V30.9999H31V17.9571C31 13.4939 28.7323 10.8652 24.7313 10.4318Z" stroke="white" stroke-width="1.5"/>
<path d="M4.63985 8.27972C6.65009 8.27972 8.27973 6.6501 8.27973 4.63986C8.27973 2.62962 6.65009 1 4.63985 1C2.62961 1 1 2.62962 1 4.63986C1 6.6501 2.62961 8.27972 4.63985 8.27972Z" stroke="white" stroke-width="1.5"/>
</svg>
