<svg width="25" height="31" viewBox="0 0 25 31" fill="none" xmlns="http://www.w3.org/2000/svg">
<path d="M13.8418 29.6669L13.4829 29.3188L13.8418 29.6669ZM11.1712 29.6669L11.5301 29.3188L11.1712 29.6669ZM23.6732 12.5461C23.6732 15.3033 21.942 18.6816 19.7459 21.83C17.5679 24.9527 15.0058 27.7484 13.4829 29.3188L14.2008 30.015C15.7406 28.4271 18.3442 25.5877 20.5661 22.4021C22.77 19.2424 24.6732 15.6394 24.6732 12.5461H23.6732ZM11.5301 29.3188C10.0072 27.7484 7.44515 24.9527 5.2671 21.83C3.07103 18.6816 1.33984 15.3033 1.33984 12.5461H0.339844C0.339844 15.6394 2.24298 19.2424 4.44691 22.4021C6.66887 25.5877 9.27247 28.4271 10.8123 30.015L11.5301 29.3188ZM1.33984 12.5461C1.33984 8.96433 2.59804 6.21571 4.59711 4.35987C6.60171 2.4989 9.39026 1.5 12.5065 1.5V0.5C9.17944 0.5 6.13466 1.568 3.91675 3.627C1.69332 5.69112 0.339844 8.71554 0.339844 12.5461H1.33984ZM12.5065 1.5C15.6228 1.5 18.4113 2.4989 20.4159 4.35987C22.415 6.21571 23.6732 8.96433 23.6732 12.5461H24.6732C24.6732 8.71554 23.3197 5.69112 21.0963 3.627C18.8784 1.568 15.8336 0.5 12.5065 0.5V1.5ZM13.4829 29.3188C12.9401 29.8785 12.0729 29.8785 11.5301 29.3188L10.8123 30.015C11.7479 30.9798 13.2651 30.9798 14.2008 30.015L13.4829 29.3188ZM17.0065 11C17.0065 13.4853 14.9918 15.5 12.5065 15.5V16.5C15.5441 16.5 18.0065 14.0376 18.0065 11H17.0065ZM12.5065 15.5C10.0212 15.5 8.00651 13.4853 8.00651 11H7.00651C7.00651 14.0376 9.46894 16.5 12.5065 16.5V15.5ZM8.00651 11C8.00651 8.51472 10.0212 6.5 12.5065 6.5V5.5C9.46894 5.5 7.00651 7.96243 7.00651 11H8.00651ZM12.5065 6.5C14.9918 6.5 17.0065 8.51472 17.0065 11H18.0065C18.0065 7.96243 15.5441 5.5 12.5065 5.5V6.5Z" fill="white"/>
</svg>
