<svg width="32" height="32" viewBox="0 0 32 32" fill="none" xmlns="http://www.w3.org/2000/svg">
<path d="M5.73025 1.63768L3.12185 4.24609C0.986733 6.3812 0.400008 9.61679 1.64949 12.3657C5.27313 20.3377 11.6623 26.7269 19.6343 30.3505C22.3832 31.6 25.6188 31.0133 27.7539 28.8781L30.3623 26.2697C31.2126 25.4195 31.2126 24.041 30.3623 23.1907L26.8534 19.6818C26.1908 19.0192 25.1784 18.8549 24.3402 19.274L22.3929 20.2477C20.7165 21.0859 18.6919 20.7573 17.3666 19.432L12.568 14.6334C11.2427 13.3081 10.9141 11.2835 11.7523 9.60709L12.726 7.65976C13.1451 6.82156 12.9808 5.80923 12.3182 5.14658L8.80926 1.63768C7.95902 0.787438 6.5805 0.787439 5.73025 1.63768Z" stroke="white" stroke-width="1.50694" stroke-linejoin="round"/>
</svg>
