<svg width="32" height="32" viewBox="0 0 32 32" fill="none" xmlns="http://www.w3.org/2000/svg">
<path d="M25.9856 31H6.01438C3.25462 31 1 28.7454 1 25.9856V6.01437C1 3.25462 3.25462 1 6.01438 1H25.9856C28.7454 1 31 3.25462 31 6.01437V25.9856C31 28.7577 28.7577 31 25.9856 31Z" stroke="white" stroke-width="1.5"/>
<path d="M10.5606 21.4517C12.0144 22.9055 13.9487 23.7064 16.0062 23.7064C18.0637 23.7064 19.9856 22.9055 21.4517 21.4517C22.9055 19.9979 23.7064 18.0637 23.7064 16.0062C23.7064 13.9487 22.9055 12.0144 21.4517 10.5606C19.9979 9.10678 18.0637 8.30595 16.0062 8.30595C13.9487 8.30595 12.0144 9.10678 10.5606 10.5606C9.10677 12.0144 8.30595 13.9487 8.30595 16.0062C8.30595 18.0637 9.10677 19.9979 10.5606 21.4517Z" stroke="white" stroke-width="1.5"/>
<path d="M25.2073 8.05292C26.0238 8.05292 26.6858 7.39098 26.6858 6.57444C26.6858 5.7579 26.0238 5.09596 25.2073 5.09596C24.3907 5.09596 23.7288 5.7579 23.7288 6.57444C23.7288 7.39098 24.3907 8.05292 25.2073 8.05292Z" stroke="white" stroke-width="1.5"/>
</svg>
